<?xml version="1.0" standalone="no"?>
<!DOCTYPE svg PUBLIC "-//W3C//DTD SVG 1.1//EN" "http://www.w3.org/Graphics/SVG/1.1/DTD/svg11.dtd" >
<svg xmlns="http://www.w3.org/2000/svg">
<metadata>
Created by FontForge 20120731 at Tue Oct  4 16:21:35 2016
 By admin
</metadata>
<defs>
<font id="iconfont" horiz-adv-x="1024" >
  <font-face 
    font-family="iconfont"
    font-weight="500"
    font-stretch="normal"
    units-per-em="1024"
    panose-1="2 0 6 3 0 0 0 0 0 0"
    ascent="896"
    descent="-128"
    x-height="792"
    bbox="0 -128 1262 896.429"
    underline-thickness="50"
    underline-position="-100"
    unicode-range="U+0078-E693"
  />
<missing-glyph horiz-adv-x="374" 
d="M34 0v682h272v-682h-272zM68 34h204v614h-204v-614z" />
    <glyph glyph-name=".notdef" horiz-adv-x="374" 
d="M34 0v682h272v-682h-272zM68 34h204v614h-204v-614z" />
    <glyph glyph-name=".null" horiz-adv-x="0" 
 />
    <glyph glyph-name="nonmarkingreturn" horiz-adv-x="341" 
 />
    <glyph glyph-name="x" unicode="x" horiz-adv-x="1001" 
d="M281 543q-27 -1 -53 -1h-83q-18 0 -36.5 -6t-32.5 -18.5t-23 -32t-9 -45.5v-76h912v41q0 16 -0.5 30t-0.5 18q0 13 -5 29t-17 29.5t-31.5 22.5t-49.5 9h-133v-97h-438v97zM955 310v-52q0 -23 0.5 -52t0.5 -58t-10.5 -47.5t-26 -30t-33 -16t-31.5 -4.5q-14 -1 -29.5 -0.5
t-29.5 0.5h-32l-45 128h-439l-44 -128h-29h-34q-20 0 -45 1q-25 0 -41 9.5t-25.5 23t-13.5 29.5t-4 30v167h911zM163 247q-12 0 -21 -8.5t-9 -21.5t9 -21.5t21 -8.5q13 0 22 8.5t9 21.5t-9 21.5t-22 8.5zM316 123q-8 -26 -14 -48q-5 -19 -10.5 -37t-7.5 -25t-3 -15t1 -14.5
t9.5 -10.5t21.5 -4h37h67h81h80h64h36q23 0 34 12t2 38q-5 13 -9.5 30.5t-9.5 34.5q-5 19 -11 39h-368zM336 498v228q0 11 2.5 23t10 21.5t20.5 15.5t34 6h188q31 0 51.5 -14.5t20.5 -52.5v-227h-327z" />
    <glyph glyph-name="uniE604" unicode="&#xe604;" 
d="M885 123h-746q-36 0 -55.5 19.5t-19.5 54.5v486q0 35 19.5 54.5t55.5 19.5h746q36 0 55.5 -19.5t19.5 -54.5v-486q0 -35 -19.5 -54.5t-55.5 -19.5zM885 683h-746v-486h746v486zM472 306l-26 26l-106 106l53 53l79 -80l159 159l53 -53l-185 -185zM307 67h83l10 18h224
l10 -18h83q12 0 20.5 -8t8.5 -20t-8.5 -20t-20.5 -8h-410q-12 0 -20.5 8t-8.5 20t8.5 20t20.5 8z" />
    <glyph glyph-name="uniE605" unicode="&#xe605;" 
d="M878 331h-327q-9 0 -15 -6t-6 -15v-327q0 -9 6 -15t15 -6h327q9 0 15 6t6 15v327q0 9 -6 15t-15 6zM858 3h-287v287h287v-287zM431 331h-328q-8 0 -14 -6t-6 -15v-327q0 -9 6 -15t14 -6h328q8 0 14 6t6 15v327q0 9 -6 15t-14 6zM410 3h-286v287h286v-287zM431 780h-328
q-8 0 -14 -6t-6 -14v-327q0 -9 6 -15t14 -6h328q8 0 14 6t6 15v327q0 8 -6 14t-14 6zM410 453h-286v286h286v-286zM966 618l-215 215q-6 6 -14.5 6t-14.5 -6l-214 -215q-6 -6 -6 -14.5t6 -14.5l214 -214q6 -6 14.5 -6t14.5 6l215 214q6 6 6 14.5t-6 14.5zM737 418l-186 186
l186 185l185 -185z" />
    <glyph glyph-name="uniE607" unicode="&#xe607;" 
d="M885 48v712q0 15 -11 25t-26 10h-37q-16 0 -27 -10t-11 -25v-712h-149v597q0 15 -11 26.5t-26 11.5h-38q-15 0 -26 -11.5t-11 -26.5v-597h-149v411q0 14 -11 25.5t-27 11.5h-37q-15 0 -26 -11.5t-11 -25.5v-411h-75v784h-37v-784h-75v-37h75v-75h37v75h784v37h-75z" />
    <glyph glyph-name="uniE60A" unicode="&#xe60a;" 
d="M920 446q-14 4 -27 -3t-17 -21q-17 -55 -45 -103q-50 -82 -132.5 -127t-184 -45t-184 45t-132.5 128q-28 47 -45 102q-4 14 -17 21t-27 2.5t-21.5 -17.5t-2.5 -27q19 -64 52 -118q54 -90 144 -144t198 -63v-168q0 -15 10.5 -25.5t25 -10.5t25 10.5t10.5 25.5v168
q108 9 198 63t144 144q33 55 52 118q4 14 -3 27.5t-21 17.5zM937 716q-8 19 -25.5 31t-38.5 12h-11q-76 0 -173 -40q-66 113 -130 160q-5 4 -8 6q-32 20 -66 5q-9 -3 -17 -10q-65 -46 -132 -160q-97 39 -169 39h-11q-21 0 -38.5 -12t-25.5 -31q-37 -88 -29 -199
q1 -14 11.5 -23.5t24.5 -9.5h2q15 1 24.5 12t8.5 26q-7 93 24 166h9q65 0 170 -46q13 -5 26 -0.5t19 16.5q68 122 128 165l1 1l1 1q1 -2 3 -3q59 -42 127 -166q7 -12 20 -16.5t26 1.5q106 47 173 47h10q29 -69 24 -156q-1 -15 9 -26t25 -12t26 9t12 25q5 105 -30 188z
M906 105q-8 12 -23 14t-27 -6l-238 -176q-12 -9 -14 -23.5t7 -26.5q11 -15 28 -15q12 0 22 7l238 176q12 9 14 23.5t-7 26.5zM411 -63l-238 176q-12 8 -27 6t-23.5 -14t-6.5 -26.5t14 -23.5l238 -176q10 -7 21 -7q18 0 29 14q9 13 7 27.5t-14 23.5v0z" />
    <glyph glyph-name="uniE60B" unicode="&#xe60b;" 
d="M922 175q-22 27 -56 31.5t-61 -17.5l-188 -146q-27 -22 -31 -56t17 -61t55.5 -31.5t61.5 16.5l187 147q28 21 32 55.5t-17 61.5zM886 64l-83 -65l-81 103l83 65q26 20 56.5 19.5t47 -22t10 -51t-32.5 -49.5zM533 -121q15 0 24.5 11t9 25.5t-11 24.5t-25.5 9
q-109 -4 -206.5 43t-161.5 134q-70 95 -82.5 210.5t33.5 221.5t141 176t210 82.5t221.5 -33.5t176.5 -141q65 -87 80.5 -194.5t-20.5 -209.5q-5 -14 1 -27t20 -18t27 1t18 20q43 119 24.5 243.5t-93.5 226.5q-81 110 -205 164t-258 39t-244 -96t-164 -205t-39 -258t96 -244
q75 -101 188.5 -155.5t239.5 -49.5v0zM486 656q-14 0 -24.5 -10t-10.5 -25v-235v-2v-4q1 -1 1 -3q0 -1 1 -3t2 -3.5t1 -2.5q1 -2 2 -3q2 -2 2 -3l2 -2l4 -2q1 -1 3 -2h1v-1l236 -118q7 -4 15 -4q22 0 32 20q6 13 1.5 26.5t-17.5 20.5l-216 108v213q0 15 -10 25t-25 10v0z
" />
    <glyph glyph-name="uniE60C" unicode="&#xe60c;" 
d="M342 835h-245q-9 0 -15 -6t-6 -15v-245q0 -9 6 -15t15 -6h245q8 0 14 6t6 15v245q0 9 -6 15t-14 6zM321 589h-204v205h204v-205zM927 835h-245q-8 0 -14 -6t-6 -15v-245q0 -9 6 -15t14 -6h245q9 0 15 6t6 15v245q0 9 -6 15t-15 6zM907 589h-204v205h204v-205zM927 246
h-245q-8 0 -14 -6t-6 -15v-265q0 -9 6 -15t14 -6h245q9 0 15 6t6 15v265q0 9 -6 15t-15 6zM907 -20h-204v225h204v-225zM948 456.5q0 -8.5 -6 -14.5t-15 -6h-830q-9 0 -15 6t-6 14.5t6 14.5t15 6h830q9 0 15 -6t6 -14.5zM482 811v-242q0 -9 -6 -15t-14.5 -6t-14.5 6t-6 15
v242q0 8 6 14t14.5 6t14.5 -6t6 -14zM589 811v-242q0 -9 -6 -15t-14.5 -6t-14.5 6t-6 15v242q0 8 6 14t14.5 6t14.5 -6t6 -14zM426 225v-268q0 -8 -6 -14t-14.5 -6t-14.5 6t-6 14v268q0 9 6 15t14.5 6t14.5 -6t6 -15zM557 352v-395q0 -8 -6 -14t-14.5 -6t-14.5 6t-6 14v395
q0 8 6 14t14.5 6t14.5 -6t6 -14zM166 352v-395q0 -8 -6 -14t-14.5 -6t-14.5 6t-6 14v395q0 8 6 14t14.5 6t14.5 -6t6 -14zM296 225v-268q0 -8 -6 -14t-14.5 -6t-14.5 6t-6 14v268q0 9 6 15t14.5 6t14.5 -6t6 -15zM948 351.5q0 -8.5 -6 -14.5t-15 -6h-245q-8 0 -14 6t-6 14.5
t6 14.5t14 6h245q9 0 15 -6t6 -14.5zM431 351.5q0 -8.5 -6 -14.5t-15 -6h-137q-8 0 -14 6t-6 14.5t6 14.5t14 6h137q9 0 15 -6t6 -14.5z" />
    <glyph glyph-name="uniE60D" unicode="&#xe60d;" 
d="M971 768h-918q-9 0 -15 -6t-6 -15v-612q0 -8 6 -14t15 -6h918q9 0 15 6t6 14v612q0 9 -6 15t-15 6zM951 156h-878v571h878v-571zM788 53.5q0 -8.5 -6 -14.5t-15 -6h-510q-9 0 -15 6t-6 14.5t6 14.5t15 6h510q9 0 15 -6t6 -14.5z" />
    <glyph glyph-name="uniE60E" unicode="&#xe60e;" 
d="M629 481l-163 164q-6 6 -14.5 6t-14.5 -6t-6 -14.5t6 -14.5l129 -129h-176v225q0 8 -6 14t-14 6h-348q-9 0 -15 -6t-6 -14v-818q0 -9 6 -15t15 -6h593q8 0 14 6t6 15v572q0 9 -6 15zM594 -86h-552v777h307v-225q0 -8 6 -14t15 -6h224v-532zM1024 630v-573q0 -8 -6 -14
t-14 -6h-308q-9 0 -15 6t-6 14.5t6 14.5t15 6h287v532h-225q-8 0 -14 6t-6 14v225h-307v-76q0 -8 -6 -14t-14.5 -6t-14.5 6t-6 14v97q0 8 6 14t14 6h348q9 0 15 -6t6 -14v-225h175l-129 128q-6 6 -6 14.5t6 14.5t14.5 6t14.5 -6l164 -163q6 -6 6 -15z" />
    <glyph glyph-name="uniE60F" unicode="&#xe60f;" 
d="M737 713q-15 8 -31.5 4t-25 -18.5t-4 -30t18.5 -24.5q85 -47 134 -129t49 -175q0 -96 -49 -177t-133.5 -128.5t-183.5 -47.5t-183.5 47.5t-133.5 128.5t-49 177q0 93 49 175t134 129q14 9 18.5 24.5t-4 30t-25 18.5t-31.5 -4q-103 -58 -163 -158.5t-60 -214.5
q0 -118 60 -217t163.5 -157t224.5 -58t224.5 58t163.5 157t60 217q0 114 -60 214.5t-163 158.5zM512 165q17 0 29 11.5t12 27.5v616q0 17 -12 28.5t-29 11.5t-29 -11.5t-12 -28.5v-616q0 -16 12 -27.5t29 -11.5z" />
    <glyph glyph-name="uniE612" unicode="&#xe612;" 
d="M952 3q-29 63 -130 200q-35 47 -94 119q-93 -84 -216 -84t-216 85q-59 -71 -95 -120q-45 -61 -77.5 -111t-42.5 -70l-10 -19q-13 -30 -2.5 -54t39.5 -24h807q29 0 40.5 25.5t-3.5 52.5zM512 303q109 0 186 79t77 191t-77 191t-186 79t-186 -79t-77 -191t77 -191t186 -79z
" />
    <glyph glyph-name="uniE614" unicode="&#xe614;" horiz-adv-x="1199" 
d="M1157 430h-1115q-17 0 -29.5 -12.5t-12.5 -29.5t12.5 -29.5t29.5 -12.5h1115q17 0 29.5 12.5t12.5 29.5t-12.5 29.5t-29.5 12.5zM434 -44h-169q-40 0 -69 28.5t-29 68.5v162q0 17 -12 29.5t-29.5 12.5t-29.5 -12.5t-12 -29.5v-162q0 -75 53 -128t128 -53h169
q17 0 29.5 12.5t12.5 29.5t-12.5 29.5t-29.5 12.5zM1073 257q-17 0 -29 -12.5t-12 -29.5v-162q0 -40 -29 -68.5t-69 -28.5h-169q-17 0 -29.5 -12.5t-12.5 -29.5t12.5 -29.5t29.5 -12.5h169q75 0 128 53t53 128v162q0 17 -12 29.5t-30 12.5zM763 812h169q41 0 69.5 -28.5
t28.5 -68.5v-162q0 -17 12 -29.5t29.5 -12.5t30 12.5t12.5 29.5v162q0 75 -53.5 128t-128.5 53h-169q-17 0 -29.5 -12.5t-12 -29.5t12.5 -29.5t29 -12.5zM124 512q17 0 29.5 12t12.5 29v162q0 40 28.5 68.5t68.5 28.5h169q18 0 30 12.5t12 29.5t-12 29.5t-30 12.5h-169
q-75 0 -128 -53t-53 -128v-162q0 -17 12.5 -29t29.5 -12z" />
    <glyph glyph-name="uniE615" unicode="&#xe615;" 
d="M236 -27l-3 -1h464q9 0 15 -6t6 -14.5t-6 -14.5t-15 -6h-619h-1h-1q-2 0 -3 1h-1h-1v0l-1 1q-1 0 -2 1q-1 0 -2 1l-1 1l-3 3q-1 2 -2 3t-1 2v1q0 1 -1 1v2v3v0v1v1v2v1v1h1v1l40 152q2 5 6 9l633 627q6 6 14.5 6t14.5 -6t6 -14.5t-6 -14.5l-629 -623l-31 -113l114 30
l629 623q6 6 14.5 6t14.5 -6t6 -14.5t-6 -14.5l-634 -627q-3 -4 -9 -5zM922 648l4 4q4 4 8 9l4 4q30 29 30 70t-29.5 70t-70.5 29t-70 -29l-17 -17zM58 -48v-1v1zM58 -45v-2v2zM58 -51v2v-2zM59 -43q-1 0 -1 -1v1h1z" />
    <glyph glyph-name="uniE616" unicode="&#xe616;" 
d="M997 34h-155h-168q0 -67 -47.5 -114.5t-114.5 -47.5t-114.5 47.5t-47.5 114.5h-168h-155q-11 0 -19 7.5t-8 19t8 19.5t19 8h108v323q0 162 92.5 283t231.5 143q0 1 -0.5 2.5t-0.5 2.5q0 22 16 38t38 16t38 -16t16 -38q0 -1 -0.5 -2.5t-0.5 -2.5q139 -22 231.5 -143
t92.5 -283v-323h108q11 0 19 -8t8 -19.5t-8 -19t-19 -7.5zM512 -74q45 0 76.5 31.5t31.5 76.5h-216q0 -45 31.5 -76.5t76.5 -31.5zM835 411q0 102 -43 189t-117.5 137.5t-162.5 50.5t-162.5 -50.5t-117.5 -137.5t-43 -189v-323h646v323z" />
    <glyph glyph-name="uniE617" unicode="&#xe617;" 
d="M990 -62h-701q-13 0 -22.5 9.5t-9.5 22.5v64q0 13 9.5 22t22.5 9h701q13 0 22.5 -9t9.5 -22v-64q0 -13 -9.5 -22.5t-22.5 -9.5zM990 320h-701q-13 0 -22.5 9.5t-9.5 22.5v64q0 13 9.5 22.5t22.5 9.5h701q13 0 22.5 -9.5t9.5 -22.5v-64q0 -13 -9.5 -22.5t-22.5 -9.5z
M990 703h-701q-13 0 -22.5 9t-9.5 22v64q0 13 9.5 22.5t22.5 9.5h701q13 0 22.5 -9.5t9.5 -22.5v-64q0 -13 -9.5 -22t-22.5 -9zM66 -62q-26 0 -45 18.5t-19 45t19 45t45 18.5t45 -18.5t19 -45t-19 -45t-45 -18.5zM66 320q-26 0 -45 19t-19 45t19 45t45 19t45 -19t19 -45
t-19 -45t-45 -19zM66 703q-26 0 -45 18.5t-19 45t19 45t45 18.5t45 -18.5t19 -45t-19 -45t-45 -18.5z" />
    <glyph glyph-name="uniE618" unicode="&#xe618;" 
d="M701 747.5q0 -8.5 -6 -14.5t-14.5 -6t-14.5 6t-6 14.5t6 14.5t14.5 6t14.5 -6t6 -14.5zM823 624.5q0 -8.5 -6 -14t-14.5 -5.5t-14.5 5.5t-6 14t6 14.5t14.5 6t14.5 -6t6 -14.5zM578 624.5q0 -8.5 -6 -14t-14.5 -5.5t-14.5 5.5t-6 14t6 14.5t14.5 6t14.5 -6t6 -14.5z
M517 563.5q0 -8.5 -6 -14.5t-14.5 -6t-14.5 6t-6 14.5t6 14.5t14.5 6t14.5 -6t6 -14.5zM578 502.5q0 -8.5 -6 -14.5t-14.5 -6t-14.5 6t-6 14.5t6 14.5t14.5 6t14.5 -6t6 -14.5zM639 686.5q0 -8.5 -6 -14.5t-14 -6t-14 6t-6 14.5t6 14.5t14 6t14 -6t6 -14.5zM762 686.5
q0 -8.5 -6 -14.5t-14.5 -6t-14.5 6t-6 14.5t6 14.5t14.5 6t14.5 -6t6 -14.5zM701 502.5q0 -8.5 -6 -14.5t-14.5 -6t-14.5 6t-6 14.5t6 14.5t14.5 6t14.5 -6t6 -14.5zM639 563.5q0 -8.5 -6 -14.5t-14 -6t-14 6t-6 14.5t6 14.5t14 6t14 -6t6 -14.5zM884 563.5q0 -8.5 -6 -14.5
t-14.5 -6t-14.5 6t-6 14.5t6 14.5t14.5 6t14.5 -6t6 -14.5zM639 441.5q0 -8.5 -6 -14.5t-14 -6t-14 6t-6 14.5t6 14.5t14 6t14 -6t6 -14.5zM762 441.5q0 -8.5 -6 -14.5t-14.5 -6t-14.5 6t-6 14.5t6 14.5t14.5 6t14.5 -6t6 -14.5zM968 556l-252 255q-18 18 -44 18
q-25 0 -43 -18l-543 -548q-18 -19 -18 -44.5t18 -43.5l195 -197q6 -6 14.5 -6t14.5 6t6 14.5t-6 14.5l-195 197q-6 6 -6 15t6 15l259 261q1 -2 3 -4l290 -269l-213 -215q-10 -10 -4.5 -22.5t18.5 -12.5h375q9 0 15 6t6 14.5t-6 14.5t-15 6h-325l450 455q18 18 18 44t-18 44z
M945 507q-4 16 -20 16q-8 0 -14 -6t-6 -14.5t5.5 -14.5t14.5 -6l-41 -41q0 9 -6 15t-14.5 6t-14.5 -6t-6 -14.5t6 -14.5t15 -6l-41 -41q0 9 -6 14.5t-14.5 5.5t-14.5 -5.5t-6 -14t6 -14.5t15 -6l-41 -42v1q0 8 -6 14t-14.5 6t-14.5 -6t-6 -14.5t6 -14.5t14 -6q1 0 2 1
l-43 -43q1 1 1 2q0 8 -6 14t-15 6q-6 0 -11 -3l-34 32q4 5 4 12q0 8 -6 14t-14 6t-13 -5l-34 31q6 6 6 15t-6 14.5t-14 5.5q-10 0 -16 -7l-34 32q9 6 9 16q0 9 -6 15t-14 6q-12 0 -18 -10l-35 32q12 6 12 18q0 9 -6 15t-15 6q-13 0 -19 -13l-11 11q-1 1 -3 2l256 259
q3 3 6.5 4.5t7.5 1.5q9 0 15 -6l252 -255q8 -8 6 -20zM701 380.5q0 -8.5 -6 -14.5t-14.5 -6t-14.5 6t-6 14.5t6 14t14.5 5.5t14.5 -5.5t6 -14zM823 502.5q0 -8.5 -6 -14.5t-14.5 -6t-14.5 6t-6 14.5t6 14.5t14.5 6t14.5 -6t6 -14.5zM762 563.5q0 -8.5 -6 -14.5t-14.5 -6
t-14.5 6t-6 14.5t6 14.5t14.5 6t14.5 -6t6 -14.5zM701 624.5q0 -8.5 -6 -14t-14.5 -5.5t-14.5 5.5t-6 14t6 14.5t14.5 6t14.5 -6t6 -14.5z" />
    <glyph glyph-name="uniE619" unicode="&#xe619;" 
d="M901 614q-27 0 -46.5 -19.5t-19.5 -47.5q0 -15 8 -30q-51 -37 -112 -37q-68 0 -120.5 42t-68.5 108q36 18 36 59q0 27 -19.5 46.5t-46.5 19.5t-46 -19.5t-19 -46.5q0 -41 36 -59q-16 -66 -68.5 -108t-120.5 -42q-56 0 -105 32q10 16 10 35q0 28 -19 47.5t-46 19.5
t-46 -19.5t-19 -47.5q0 -25 17 -44t43 -21l173 -430h420l176 430h1q1 -1 2 -1q27 0 46 19.5t19 47t-19 47t-46 19.5zM693 98h-362l-142 361q50 -25 105 -25q71 0 130 39t88 103q30 -64 88.5 -103t130.5 -39q56 0 107 26z" />
    <glyph glyph-name="uniE61A" unicode="&#xe61a;" 
d="M568 -66l56 225h138q88 96 88 225q0 114 -69 205.5t-175 123.5q-17 5 -27.5 19.5t-10.5 32.5q0 28 22 45t48 10q142 -42 233 -163t91 -273q0 -111 -52.5 -209.5t-143 -162t-198.5 -78.5zM62 384q0 111 52.5 209.5t143 162t198.5 78.5l-56 -225h-138q-88 -96 -88 -225
q0 -114 69 -205.5t175 -123.5q17 -5 27.5 -19.5t10.5 -32.5q0 -28 -22 -45t-48 -10q-142 42 -233 163t-91 273z" />
    <glyph glyph-name="uniE61B" unicode="&#xe61b;" 
d="M944 178l-323 266q26 56 26 118q0 117 -83 200.5t-200 83.5q-43 0 -82 -12l-31 -10l175 -175q12 -12 12 -28t-12 -28l-93 -93q-11 -11 -27.5 -11t-27.5 11l-176 175l-9 -30q-12 -40 -12 -83q0 -117 83 -200t200 -83q62 0 119 26l140 -172q1 -5 4 -8t7 -5l114 -140
q22 -26 55 -26q31 0 53 22l93 93q23 23 21.5 55t-26.5 54zM921 97l-93 -93q-11 -11 -26 -10.5t-25 11.5l-54 66l65 52q6 5 7 13t-4 14.5t-13 7t-14 -4.5l-65 -52l-28 35l58 46q6 6 7 13.5t-4 14t-13 7.5t-14 -4l-59 -47l-153 188l-14 -8q-54 -28 -115 -28q-101 0 -173 71.5
t-72 172.5q0 20 3 39l128 -128q22 -22 55 -22t56 22l93 93q22 23 22 55.5t-22 54.5l-128 128q19 3 38 3q101 0 173 -71.5t72 -173.5q0 -61 -29 -114l-7 -14l346 -286q12 -10 13 -25t-11 -26z" />
    <glyph glyph-name="uniE61C" unicode="&#xe61c;" horiz-adv-x="1205" 
d="M1190 -128h-106h-301h-60h-241h-60h-302h-105q-6 0 -10.5 4.5t-4.5 10.5v30q0 6 4.5 10.5t10.5 4.5h105v542q0 25 18 43t43 18h241v120q0 25 17.5 42.5t42.5 17.5h241v121q0 25 17.5 42.5t42.5 17.5h241q25 0 42.5 -17.5t17.5 -42.5v-904h106q6 0 10.5 -4.5t4.5 -10.5
v-30q0 -6 -4.5 -10.5t-10.5 -4.5zM422 474h-241v-542h241v542zM723 655h-241v-723h241v723zM1024 836h-241v-904h241v904z" />
    <glyph glyph-name="uniE61D" unicode="&#xe61d;" 
d="M1010 839h-996q-6 0 -10 4t-4 10v29q0 6 4 10t10 4h996q6 0 10 -4t4 -10v-29q0 -6 -4 -10t-10 -4zM474 699q4 4 10 6v6q0 6 4 10t10 4h28q6 0 10 -4t4 -10v-6q6 -2 10 -6l448 -447q8 -9 8 -20.5t-8.5 -20t-20 -8.5t-20.5 8l-417 417v-742q0 -6 -4 -10t-10 -4h-28
q-6 0 -10 4t-4 10v742l-417 -417q-9 -8 -20.5 -8t-20 8.5t-8.5 20t8 20.5z" />
    <glyph glyph-name="uniE61F" unicode="&#xe61f;" 
d="M848 128h-192q-26 0 -45 19t-19 45v32h-288v-288q0 -26 -18.5 -45t-45.5 -19h-64q-27 0 -45.5 19t-18.5 45v896q0 27 18.5 45.5t45.5 18.5h64q27 0 45.5 -18.5t18.5 -45.5v-32h288q27 0 45.5 -18.5t18.5 -45.5v-64h192q27 0 45.5 -18.5t18.5 -45.5v-416q0 -26 -18.5 -45
t-45.5 -19zM240 224v64v448v64q0 13 -9.5 22.5t-22.5 9.5t-22.5 -9.5t-9.5 -22.5v-832q0 -13 9.5 -22.5t22.5 -9.5t22.5 9.5t9.5 22.5v256zM592 704q0 13 -9.5 22.5t-22.5 9.5h-256v-32v-384v-32h256q13 0 22.5 9.5t9.5 22.5v384zM848 576q0 13 -9.5 22.5t-22.5 9.5h-160
v-32v-288v-91v1v-6h160q7 0 15.5 -4t12.5 -4t4 8v384z" />
    <glyph glyph-name="uniE621" unicode="&#xe621;" horiz-adv-x="1263" 
d="M1252 778l-108 109q-10 9 -24.5 9t-24.5 -9l-229 -229l-798 -1q-26 0 -47 -22t-21 -46v-649q0 -27 22 -47.5t46 -20.5h956q24 0 46 21.5t22 46.5l1 629l159 160q10 10 10 24.5t-10 24.5zM1024 -60h-956v650h730l-190 -190q-7 -7 -9 -16l-29 -102h-298q-14 0 -24 -10
t-10 -24t10 -24t24 -10h324q74 0 112 9q7 2 16 4t13 3t9 2.5t7 2.5t4.5 2t4.5 2.5t3 3.5l259 257v-560zM724 298l-81 -20l20 80l456 456l61 -60z" />
    <glyph glyph-name="uniE625" unicode="&#xe625;" horiz-adv-x="1045" 
d="M1032 694l-531 -552h-192v193l532 550q11 11 27 11t28 -11l136 -137q11 -11 11 -27t-11 -27zM868 803l-482 -507v-77h77l487 502zM540 798h-463v-849h849v463q0 21 7.5 27.5t28.5 6.5q22 0 31.5 -7t9.5 -27v-463q0 -28 -24.5 -52.5t-52.5 -24.5h-849q-28 0 -52.5 24.5
t-24.5 52.5v849q0 28 24.5 52.5t52.5 24.5h463q20 0 27 -9.5t7 -31.5q0 -21 -6.5 -28.5t-27.5 -7.5z" />
    <glyph glyph-name="uniE626" unicode="&#xe626;" 
d="M1015 353q-6 -6 -15 -6q-8 0 -14 6l-65 68v-524q0 -8 -6 -14t-14 -6h-266q-8 0 -14 6t-6 14.5t6 14.5t14 6h245v545l-367 383l-367 -383v-545h224v306q0 8 6 14t15 6h244q9 0 15 -6t6 -14.5t-6 -14.5t-15 -6h-224v-306q0 -8 -6 -14t-14 -6h-266q-8 0 -14 6t-6 14v524
l-65 -68q-6 -6 -14.5 -6t-14.5 6t-6 14.5t6 14.5l487 508q6 6 15 6t15 -6l487 -508q6 -6 6 -14.5t-6 -14.5z" />
    <glyph glyph-name="uniE627" unicode="&#xe627;" horiz-adv-x="1026" 
d="M984 855q-42 41 -100 41h-279q-98 0 -158 -60h-1v-1h-1v-1h-1v-1h-1v-1l-1 -1h-1v-1l-1 -1h-1l-1 -1v-1l-1 -1h-1l-1 -1v-1l-1 -1l-1 -1l-1 -1h-1l-1 -1l-1 -1v-1l-1 -1l-1 -1l-1 -1l-1 -1l-1 -1h-1l-1 -1l-1 -1l-1 -1l-1 -1l-1 -1l-1 -1l-1 -1l-1 -1l-1 -1l-1 -1l-1 -1
l-1 -1l-1 -1l-1 -1l-1 -1l-79 -79v0q-10 -11 -10 -25.5t10.5 -25t25 -10.5t25.5 10v0l56 56l62 62q22 23 47 31t61 8h278q28 0 49 -21q20 -20 20 -49h1q-1 -6 -1 -10v-261q0 -76 -38 -114l-118 -118v-1q-11 -10 -11 -25t10.5 -25.5t25.5 -10.5t25 11l80 79q35 36 38 39
q60 59 60 165v271q-1 59 -41 100zM847 719q-31 31 -75.5 31t-76 -31t-31.5 -75.5t31.5 -76t76 -31.5t76 31.5t31.5 76t-32 75.5zM797 618q-11 -11 -25.5 -11t-25 10.5t-10.5 25.5t10.5 25.5t25 10.5t25 -10.5t10.5 -25.5t-10 -25zM704 159l-195 -195q-21 -20 -50 -21
q-28 0 -49 21l-318 318q-21 19 -21 49q0 29 21 49l196 196q10 10 10 25t-10.5 25.5t-25.5 10.5t-25 -11l-79 -79l-32 -33q-18 -17 -32.5 -31t-26.5 -26l-19 -19l-7 -7q-41 -42 -41 -100t41 -100l319 -318q41 -41 99 -41q59 0 100 41q62 63 116 117l80 79q10 10 10 25
t-10.5 25.5t-25 10.5t-25.5 -11z" />
    <glyph glyph-name="uniE629" unicode="&#xe629;" 
d="M998 527q0 -76 -30 -147q-26 -63 -75 -122q-70 -83 -210 -179q-7 -4 -15 -2.5t-13 8.5t-3.5 15t8.5 13q136 93 202 171q95 114 95 243q0 94 -66 160t-159 66q-57 0 -106.5 -27t-81.5 -74l-17 -26l-17 26q-31 47 -81 74t-107 27q-93 0 -159 -66t-66 -160q0 -44 12.5 -87.5
t29.5 -77.5t48.5 -70.5t55.5 -60.5t66 -56t65 -48t65 -44q75 -50 101 -72q7 -6 7.5 -14.5t-4.5 -14.5q-6 -8 -16 -8q-7 0 -13 5q-25 21 -98 70q-50 33 -79.5 54t-75.5 58.5t-79 72.5q-59 64 -90 131q-36 78 -36 162q0 111 78 189t188 78q60 0 113.5 -25.5t91.5 -71.5
q38 46 91.5 71.5t113.5 25.5q110 0 188 -78t78 -189z" />
    <glyph glyph-name="uniE62F" unicode="&#xe62f;" 
d="M939 100h-467l-273 -228l21 228h-135q-23 0 -40 16.5t-17 39.5v683q0 24 17 40.5t40 16.5h854q23 0 40 -16.5t17 -40.5v-683q0 -23 -17 -39.5t-40 -16.5zM939 839h-854v-683h195l-25 -170l200 170h484v683zM285 437l51 25q25 -48 72.5 -77t103.5 -29q60 0 109 32t73 85
l51 -25q-31 -67 -94 -108t-139 -41q-73 0 -134 37.5t-93 100.5z" />
    <glyph glyph-name="uniE630" unicode="&#xe630;" 
d="M916 605h-778q-8 0 -14 6t-6 14.5t6 14.5t14 6h778q9 0 15 -6t6 -14.5t-6 -14.5t-15 -6zM937 400.5q0 -8.5 -6 -14.5t-15 -6h-778q-8 0 -14 6t-6 14.5t6 14.5t14 6h778q9 0 15 -6t6 -14.5zM916 155h-778q-8 0 -14 6t-6 14.5t6 14.5t14 6h778q9 0 15 -6t6 -14.5t-6 -14.5
t-15 -6z" />
    <glyph glyph-name="uniE631" unicode="&#xe631;" 
d="M997 441.5q0 -83.5 -38 -160.5q-36 -73 -101 -129t-149 -87q-87 -32 -182 -32q-8 0 -14 6t-6 14.5t6 14.5t14 6q88 0 168 29q77 28 136 80q60 52 92.5 118.5t32.5 139.5t-32.5 140t-92.5 119q-59 51 -136 79q-80 30 -168 30t-168 -30q-77 -28 -136 -79q-60 -52 -92 -119
t-32 -140q0 -89 47 -167q46 -77 127 -128q9 -6 9 -17q0 -58 -42 -133q51 8 98 40q32 22 51 45q5 7 13.5 7.5t15 -4.5t7.5 -13.5t-4 -15.5q-21 -26 -59 -52q-75 -52 -160 -52h-1q-13 1 -18.5 12t1.5 21q35 50 50 102q5 17 6 32q-82 55 -129 135q-53 88 -53 188q0 84 37 160
q36 74 101 130t149 87q87 31 182 31t182 -31q84 -31 149 -87t101 -130q38 -76 38 -159.5z" />
    <glyph glyph-name="uniE636" unicode="&#xe636;" 
d="M436 380l-36 -108l108 36q6 2 10 6l414 414q16 16 16 38.5t-15.5 38t-38 15.5t-38.5 -15l-414 -415q-4 -4 -6 -10zM935 496h-59q-11 0 -18.5 -7.5t-7.5 -18.5v-397q0 -11 -8 -19t-19 -8h-622q-11 0 -19 8t-8 19v622q0 11 8 19t19 8h397q11 0 18.5 7.5t7.5 18.5v59
q0 11 -7.5 19t-18.5 8h-509q-11 0 -19 -8t-8 -19v-846q0 -11 8 -19t19 -8h846q11 0 19 8t8 19v509q0 11 -8 19t-19 7z" />
    <glyph glyph-name="uniE637" unicode="&#xe637;" 
d="M896 64h-768q-48 0 -88 26.5t-40 69.5v563q0 45 31.5 77t76.5 32h808q45 0 76.5 -32t31.5 -77v-563q0 -43 -40 -69.5t-88 -26.5zM960 713q0 23 -16 39t-38 16h-787q-23 0 -39 -16t-16 -39v-467q0 -22 16 -38t39 -16h787q22 0 38 16t16 39v466zM293 0h438q15 0 26 -9.5
t11 -22.5t-11 -22.5t-26 -9.5h-438q-15 0 -26 9.5t-11 22.5t11 22.5t26 9.5z" />
    <glyph glyph-name="uniE639" unicode="&#xe639;" 
d="M878 98v455h-338v118q25 9 40.5 30.5t15.5 48.5q0 35 -24.5 59.5t-59.5 24.5t-59.5 -24.5t-24.5 -59.5q0 -27 15.5 -48.5t40.5 -30.5v-118h-338v-455q-25 -9 -40.5 -31t-15.5 -49q0 -35 25 -59.5t59.5 -24.5t59.5 24.5t25 59.5q0 27 -15.5 49t-40.5 31v398h281v-398
q-25 -9 -40.5 -31t-15.5 -49q0 -35 24.5 -59.5t59.5 -24.5t59.5 24.5t24.5 59.5q0 27 -15.5 49t-40.5 31v398h281v-398q-25 -9 -40.5 -31t-15.5 -49q0 -35 25 -59.5t59.5 -24.5t59.5 24.5t25 59.5q0 27 -15.5 49t-40.5 31z" />
    <glyph glyph-name="uniE63A" unicode="&#xe63a;" 
d="M720 -75q-14 0 -28 5q-66 25 -121 65q-10 7 -28 8q-16 -1 -31 -1q-139 0 -257 56.5t-186.5 153.5t-68.5 211t68.5 210.5t186.5 153t257 56.5t257 -56.5t186.5 -153t68.5 -210.5q0 -112 -67.5 -209t-183.5 -153l8 -12q16 -21 16 -47t-16 -47q-23 -30 -61 -30zM545 71
q37 0 66 -21q48 -34 105 -56q8 -1 11 3q4 5 0 10q-7 10 -15 22q-15 25 -7 52t34 39q100 47 158.5 128.5t58.5 174.5q0 95 -59.5 176t-162 128.5t-222.5 47.5t-222.5 -47.5t-162 -128.5t-59.5 -176.5t59.5 -176.5t162 -128.5t222.5 -47.5q15 0 28 1h5z" />
    <glyph glyph-name="uniE63E" unicode="&#xe63e;" 
d="M915 766h-806q-38 0 -65 -27t-27 -65v-559q0 -37 27 -64t65 -27h806q38 0 65 27t27 64v559q0 38 -27 65t-65 27zM109 699h806q11 0 18 -7t7 -18v-79h-856v79q0 11 7 18t18 7zM915 91h-806q-11 0 -18 7t-7 17v423h856v-423q0 -10 -7 -17t-18 -7zM851 404h-182
q-13 0 -23 10t-10 23q0 14 10 24t23 10h182q14 0 24 -10t10 -24q0 -13 -10 -23t-24 -10z" />
    <glyph glyph-name="uniE641" unicode="&#xe641;" 
d="M278 -125q-61 0 -116 26l-41 19l128 129l-73 74l-129 -129l-19 42q-24 54 -24 114q0 113 80 193.5t194 80.5q48 0 93 -16l116 116q-16 45 -16 93q0 114 80.5 195t194.5 81q60 0 114 -25l42 -19l-127 -128l73 -73l128 128l19 -42q26 -55 26 -117q0 -114 -80.5 -194.5
t-194.5 -80.5q-50 0 -96 18l-115 -115q17 -46 17 -95q0 -114 -80 -194.5t-194 -80.5zM235 -56q21 -5 43 -5q87 0 148.5 62t61.5 149q0 47 -19 89l-10 20l177 177l20 -10q43 -20 90 -20q88 0 149.5 62t61.5 149q0 23 -4 45l-105 -104l-164 163l103 104q-20 4 -41 4
q-87 0 -149 -62t-62 -150q0 -46 19 -87l9 -20l-178 -178l-20 9q-41 19 -87 19q-87 0 -148.5 -61.5t-61.5 -148.5q0 -21 4 -41l104 104l164 -164z" />
    <glyph glyph-name="uniE644" unicode="&#xe644;" 
d="M945 106l-418 -231v477l418 240v-486zM489 -126l-414 234v486l414 -243v-477zM199 655l307 -178l325 178l-325 176zM505 408l-425 243l425 243l444 -243z" />
    <glyph glyph-name="uniE646" unicode="&#xe646;" 
d="M335.5 796q-81.5 -36 -141.5 -97.5t-95 -142.5t-35 -172v-448h90v448q0 73 28.5 138.5t77 114t114 77t138.5 28.5t138.5 -28.5t114 -77t77 -114t28.5 -138.5v-448h90v448q0 91 -36 172t-97.5 142.5t-142.5 97.5t-172 36q-95 0 -176.5 -36z" />
    <glyph glyph-name="uniE647" unicode="&#xe647;" horiz-adv-x="1027" 
d="M921 586h-101q-25 87 -73 154q-46 65 -106 101q-65 38 -136 38t-135 -38q-61 -36 -107 -101q-47 -67 -72 -154h-93q-38 0 -64.5 -26.5t-26.5 -63.5v-532q0 -38 26.5 -64.5t64.5 -26.5h823q37 0 63.5 26.5t26.5 64.5v532q0 37 -26.5 63.5t-63.5 26.5zM317 701
q39 55 87.5 83.5t101 28.5t101 -28.5t87.5 -83.5q35 -50 56 -115h-490q22 65 57 115zM945 -36q0 -10 -7 -17.5t-17 -7.5h-823q-11 0 -18 7.5t-7 17.5v532q0 10 7 17t18 7h78q-8 -51 -8 -103q0 -18 1 -36h-5q-13 0 -23 -10t-10 -23v-3q0 -14 10 -24t23 -10h73q13 0 23 10
t10 24v3q0 13 -10 23t-23 10h-2q-1 18 -1 36q0 53 10 103h523q10 -50 10 -103q0 -18 -2 -37q-11 -2 -18 -11.5t-7 -20.5v-3q0 -14 9.5 -24t23.5 -10h72q14 0 24 10t10 24v3q0 13 -10 23t-24 10h-13q1 18 1 36q0 52 -9 103h87q10 0 17 -7t7 -17v-532z" />
    <glyph glyph-name="uniE649" unicode="&#xe649;" 
d="M986 450q-29 43 -71 52q-10 30 -40 39q-14 138 -116 232q-105 98 -249 98t-250 -98q-101 -94 -115 -232q-30 -9 -40 -39q-42 -9 -72 -52q-33 -50 -33 -119.5t33 -119.5q30 -44 72 -53q6 -18 22 -30t36 -12q26 0 43.5 18t17.5 43v306q0 19 -10.5 34.5t-27.5 22.5
q13 120 102 203q94 87 222 87t222 -87q89 -83 102 -203q-17 -7 -28 -22.5t-11 -34.5v-306q0 -19 11.5 -35t28.5 -22q-4 -61 -41 -93.5t-101 -32.5h-64q-7 18 -22.5 29.5t-35.5 11.5h-102q-25 0 -43 -18t-18 -43.5t18 -43.5t43 -18h102q20 0 35.5 11.5t22.5 29.5h64
q81 0 129.5 44.5t53.5 121.5q29 10 39 39q42 9 71 53q34 50 34 119.5t-34 119.5zM184 177q0 -8 -6 -14t-14.5 -6t-14.5 6t-6 14.5t-6 14.5t-15 6q-33 0 -57 39t-24 93t24 93.5t57 39.5q9 0 15 6t6 14t6 14t14.5 6t14.5 -6t6 -14v-306zM571 -47h-102q-8 0 -14 6t-6 14.5
t6 14.5t14 6h102q8 0 14 -6t6 -14.5t-6 -14.5t-14 -6zM897 198q-8 0 -14 -6t-6 -14.5t-6 -14.5t-14.5 -6t-14.5 6t-6 14v306q0 8 6 14t14.5 6t14.5 -6t6 -14t6 -14t14 -6q33 0 57.5 -39.5t24.5 -93.5t-24.5 -93t-57.5 -39z" />
    <glyph glyph-name="uniE64A" unicode="&#xe64a;" 
d="M64 113v-41q0 -53 22 -94.5t65 -41.5h723q42 0 64 41.5t22 94.5v41q0 -43 -25 -60t-75 -17h-696q-50 0 -75 16.5t-25 60.5zM64 746v-511q0 -46 27 -73t73 -27h696q46 0 73 27t27 73v511q0 45 -20.5 65.5t-65.5 20.5h-77v-92q41 -24 41 -71q0 -34 -24 -57.5t-57.5 -23.5
t-57.5 23.5t-24 57.5q0 47 41 71v92h-408v-92q41 -24 41 -71q0 -34 -24 -57.5t-57.5 -23.5t-57.5 23.5t-24 57.5q0 47 41 71v92h-76q-46 0 -66.5 -20t-20.5 -66z" />
    <glyph glyph-name="uniE64C" unicode="&#xe64c;" 
d="M554 52q0 -11 8 -18.5t19 -7.5h399q11 0 18.5 7.5t7.5 18t-7.5 18t-18.5 7.5h-399q-11 0 -19 -7.5t-8 -17.5v0zM980 -62h-589q-11 0 -18.5 -7.5t-7.5 -18t7.5 -18.5t18.5 -8h589q11 0 18.5 8t7.5 18.5t-7.5 18t-18.5 7.5v0zM411 32v1l1 1q1 1 2 1l421 412v0l78 77
q52 50 52 121t-52 121l-23 23q-51 50 -123 50t-124 -50l-500 -490l-1 -1l-2 -2l-1 -2q-1 0 -1 -1h-1q-26 -33 -55.5 -123t-42 -144t-20.5 -94q-2 -14 8 -24q8 -7 18 -7q3 0 6 1q42 10 94 24t141.5 46t121.5 58q1 1 3 2v0zM196 278l387 379l196 -191l-387 -379zM681 752
q35 35 85.5 35t86.5 -35l23 -23q36 -35 36 -84t-36 -84l-60 -59l-196 192zM163 238l188 -184q-77 -42 -272 -92q44 199 84 276v0z" />
    <glyph glyph-name="uniE64E" unicode="&#xe64e;" 
d="M950 -72q-22 149 -134 252q-61 57 -140 88q44 23 80 58q95 95 95 229.5t-95 229t-229.5 94.5t-229 -94.5t-94.5 -229t94 -229.5q32 -32 71 -54q-86 -30 -153 -92q-112 -103 -134 -252q-2 -13 7 -23.5t23 -11.5h2q12 -1 22 6.5t11 20.5q19 126 114 213q101 93 239 99
q14 -1 28 -1q8 0 17 1q131 -10 227 -99q95 -87 114 -213q1 -13 11 -20.5t22 -6.5h2q14 1 23 11.5t7 23.5zM268 555q0 107 76 182.5t183 75.5t182.5 -75.5t75.5 -182.5t-76 -182q-74 -75 -180 -76h-13q-101 5 -172 76q-76 75 -76 182z" />
    <glyph glyph-name="uniE64F" unicode="&#xe64f;" 
d="M765 282l-223 -223q-6 -6 -14.5 -6t-14.5 6l-223 223q-6 6 -6 14.5t6 14.5t14.5 6t14.5 -6l188 -188v605q0 8 6 14t14.5 6t14.5 -6t6 -14v-605l188 188q6 6 14.5 6t14.5 -6t6 -14.5t-6 -14.5z" />
    <glyph glyph-name="uniE650" unicode="&#xe650;" 
d="M875 400.5q0 -8.5 -6 -14.5t-15 -6h-605l189 -188q6 -6 6 -14.5t-6 -14.5t-14.5 -6t-14.5 6l-223 223q-6 6 -6 14.5t6 14.5l223 223q6 6 14.5 6t14.5 -6t6 -14.5t-6 -14.5l-189 -188h605q9 0 15 -6t6 -14.5z" />
    <glyph glyph-name="uniE651" unicode="&#xe651;" 
d="M875 400.5q0 -8.5 -6 -14.5l-223 -223q-6 -6 -14.5 -6t-14.5 6t-6 14.5t6 14.5l188 188h-605q-8 0 -14 6t-6 14.5t6 14.5t14 6h605l-188 188q-6 6 -6 14.5t6 14.5t14.5 6t14.5 -6l223 -223q6 -6 6 -14.5z" />
    <glyph glyph-name="uniE653" unicode="&#xe653;" 
d="M764 437q-6 -6 -14.5 -6t-14.5 6l-187 187v-603q0 -9 -6 -15t-14.5 -6t-14.5 6t-6 15v603l-188 -187q-6 -6 -14.5 -6t-14.5 6t-6 14.5t6 14.5l223 222q6 6 14.5 6t14.5 -6l222 -222q6 -6 6 -14.5t-6 -14.5zM843 745.5q0 -8.5 -6 -14.5t-15 -6h-590q-9 0 -15 6t-6 14.5
t6 14.5t15 6h590q9 0 15 -6t6 -14.5z" />
    <glyph glyph-name="uniE654" unicode="&#xe654;" 
d="M527.5 230q-8.5 0 -14.5 6l-293 288q-6 6 -6 14t6 14.5t14 6.5t15 -6l278 -274l279 274q6 6 14.5 6t14.5 -6.5t5.5 -14.5t-6.5 -14l-293 -288q-5 -6 -13.5 -6z" />
    <glyph glyph-name="uniE655" unicode="&#xe655;" 
d="M894 487h-576q-3 11 -16 52t-16 51q-25 80 14.5 155t120.5 100t155.5 -14.5t99.5 -120.5l27 -87l39 12q-23 73 -27 87q-30 97 -119.5 144.5t-186.5 17.5t-144.5 -119.5t-17.5 -186.5q10 -32 28 -91h-115q-9 0 -15 -6t-6 -14v-572q0 -8 6 -14t15 -6h734q9 0 15 6t6 14v572
q0 8 -6 14t-15 6zM874 -84h-694v530h694v-530zM588 222q0 -27 -20 -45v-57q0 -17 -12 -29t-29 -12t-29 12t-12 29v57q-20 18 -20 45q0 25 18 43t43 18t43 -18t18 -43z" />
    <glyph glyph-name="uniE657" unicode="&#xe657;" 
d="M994 623v-449q0 -12 -10 -18t-20 0l-265 143q-7 4 -9.5 12t1.5 15.5t12 10t15 -1.5l236 -127v381l-236 -127q-10 -5 -20 0.5t-10 17.5v204h-612v-571h633q8 0 14 -6t6 -14.5t-6 -14.5t-14 -6h-653q-9 0 -15 6t-6 14v612q0 9 6 15t15 6h653q8 0 14 -6t6 -15v-190l235 127
q10 5 20 -1t10 -17z" />
    <glyph glyph-name="uniE660" unicode="&#xe660;" 
d="M710 348q82 82 82 198t-82 197.5t-198 81.5t-198 -81.5t-82 -197.5t82 -198q70 -69 169 -80v-129h-138v-59h137v-137h60v137h137v59h-137v129q98 11 168 80zM355.5 389.5q-64.5 64.5 -64.5 156t64.5 156t156.5 64.5t156.5 -64.5t64.5 -156t-64.5 -156t-156.5 -64.5
t-156.5 64.5z" />
    <glyph glyph-name="uniE661" unicode="&#xe661;" 
d="M917 604h-148q2 3 4 7q44 62 41 132q-1 34 -16 63q-15 31 -42 50t-61 22q-32 4 -65 -6q-66 -21 -110 -84q-4 -5 -7 -11q-4 6 -7 11q-44 63 -111 84q-33 10 -64 6q-34 -3 -61.5 -22t-42.5 -50q-14 -29 -16 -63q-3 -70 41 -132q2 -4 5 -7h-156q-37 0 -64 -26.5t-27 -64.5
v-57q0 -38 27 -64.5t64 -26.5h5v-377q0 -38 26.5 -65t64.5 -27h630q38 0 64.5 27t26.5 65v377q38 0 64 26.5t26 64.5v57q0 38 -26.5 64.5t-64.5 26.5zM574 750q27 43 76 58q15 5 29 5q22 0 39 -12q28 -19 30 -61q1 -24 -9 -49.5t-29 -41.5q-27 -24 -59 -34t-54 -9t-32 8
q-7 5 -12 25t-0.5 51.5t21.5 59.5zM278 740q2 42 29 61q17 12 39 12q14 0 29 -5q50 -15 76 -58q17 -28 21.5 -59.5t0 -51.5t-12.5 -25q-10 -7 -32 -8t-54 9t-58 34q-19 16 -29 41.5t-9 49.5zM77 456v57q0 11 7 18t17 7h376v-107h-376q-10 0 -17 7.5t-7 17.5zM172 -12v377
h305v-402h-280q-10 0 -17.5 7t-7.5 18zM827 -37h-281v402h306v-377q0 -11 -7.5 -18t-17.5 -7zM942 456q0 -10 -7.5 -17.5t-17.5 -7.5h-371v107h371q10 0 17.5 -7t7.5 -18v-57z" />
    <glyph glyph-name="uniE678" unicode="&#xe678;" 
d="M669 617.5q0 20.5 -14 34.5q-15 14 -39 14h-155h-209q-24 0 -38.5 -15.5t-14.5 -35t14.5 -34.5t38.5 -15h364q23 0 38 15.5t15 36zM313 61h-121q-41 0 -41 41v605q0 31 5 36t36 5h484q27 0 34.5 -7.5t7.5 -33.5v-61q0 -24 16 -39q13 -13 33 -13.5t35.5 13.5t15.5 39v61
q0 76 -32.5 108.5t-109.5 32.5h-484q-22 0 -34.5 -1t-35.5 -8.5t-36.5 -20.5t-24 -41t-10.5 -67v-305v-78v-245q0 -23 6 -42q12 -36 42.5 -57.5t69.5 -21.5h50h94q23 0 36 16q12 13 12 33q0 22 -13.5 36.5t-34.5 14.5zM610 220q12 -13 93 -96l26 -26q14 -14 33 -14q8 0 16 2
q25 9 31 35q7 27 -12 47q-10 11 -57 60q-38 41 -44 44v64v38q0 21 -15 35.5t-36 14.5q-20 0 -34 -14.5t-14 -34.5v-84v-37q0 -20 13 -34zM676 545q-87 0 -161.5 -43.5t-117.5 -117.5t-43 -161.5t43 -161.5t117 -117.5t161.5 -43.5t162 43t117.5 117t43 162q0 87 -43 161.5
t-117.5 118t-161.5 43.5zM676 445v19v-19q92 0 157 -65.5t65 -158.5q0 -91 -65.5 -155.5t-157.5 -64.5t-156.5 65t-64.5 157t65 157t157 65zM252 484q-24 0 -38.5 -15t-14.5 -35t14.5 -34.5t38.5 -14.5h61q24 0 38.5 15.5t14.5 35.5t-14 34q-15 14 -40 14h-60z" />
    <glyph glyph-name="uniE67A" unicode="&#xe67a;" 
d="M543 576h167q14 0 24 10t10 24t-10 24t-24 10h-167q-14 0 -24 -10t-10 -24t10 -24t24 -10zM924 596l-58 34v177q0 25 -16.5 38t-35.5 13h-612q-19 0 -35 -13.5t-16 -37.5v-177l-58 -33q-5 -3 -12 -7t-19.5 -13.5t-20.5 -22.5t-8 -27v-525q0 -40 24.5 -58.5t52.5 -18.5
h791q30 0 56 18.5t26 58.5v525q0 14 -8 27t-20 22t-19 13.5t-12 6.5zM511 211h5l376 223v-418h-768v418l363 -218q2 -1 3 -1zM775 469l-267 -162l-267 162v295v2v2h3h528h3v-4v-295zM498 226zM543 674h164q14 0 24 10t10 24.5t-10 24.5t-24 10h-164q-14 0 -24 -10t-10 -24.5
t10 -24.5t24 -10zM331 571h99q13 0 24.5 10t11.5 26v98q0 17 -10 26.5t-26 9.5h-99q-13 0 -24 -9.5t-11 -26.5v-98q0 -17 9.5 -26.5t25.5 -9.5zM712 546h-382q-14 0 -24.5 -10t-10.5 -24t10.5 -24t24.5 -10h382q15 0 25 10t10 24t-10 24t-25 10z" />
    <glyph glyph-name="uniE67E" unicode="&#xe67e;" 
d="M933 556q-4 4 -30 34q-115 135 -148 171q-10 10 -16 15.5t-19.5 12t-28.5 6.5q-10 1 -102 1h-67h-69q-32 0 -59 -0.5t-43.5 -0.5t-15.5 0q-37 0 -67 -34q-19 -23 -80 -93q-77 -90 -96 -113q-25 -28 -25.5 -64.5t22.5 -70.5l2 -3q37 -43 210 -242l146 -168
q31 -35 65.5 -35t65.5 35l151 174q164 189 205 236q22 27 23.5 66t-24.5 73zM891 453q-42 -49 -204 -236l-151 -173q-14 -16 -23.5 -16t-23.5 16l-146 168q-171 197 -208 240q-25 39 -1 67q19 23 96 113q60 69 81 93q13 15 24 15h254h100q10 -1 25 -17q33 -35 147 -169
q25 -29 30 -34q11 -16 10.5 -35.5t-10.5 -31.5zM683 501l-171 -219l-171 220q-1 3 -4 3h-84v-39h2q19 0 28 -13l3 -3q19 -26 112.5 -142t113.5 -144q21 28 114 144t113 142q0 1 2 3q9 13 28 13h2v39h-83q-3 0 -5 -4z" />
    <glyph glyph-name="uniE690" unicode="&#xe690;" 
d="M861 156q66 57 66 144q0 79 -56 135t-135.5 56t-135.5 -56t-56 -135q0 -87 65 -144q-64 -33 -103.5 -94t-41.5 -134q2 -14 13.5 -27t35.5 -13h3q14 0 27 9.5t17 15.5t6 11l2 4q24 157 167 157q73 0 117.5 -40t56.5 -117l1 -5l6 -9q4 -6 15.5 -14.5t24.5 -9.5q24 -3 36 10
t15 31q-3 71 -42 131.5t-104 93.5zM827 300q0 -38 -27 -65t-65 -27t-65 27t-27 65t27 65t65 27t65 -27t27 -65zM475 676h-230q-27 0 -43 -17t-16 -39t15.5 -38t43.5 -16h483q26 0 42.5 17t16.5 39.5t-16 37.5q-16 16 -43 16h-253zM311 8h-133q-45 0 -45 45v668
q0 34 5.5 39.5t39.5 5.5h616q30 0 38.5 -8t8.5 -37v-67q0 -26 17 -43q15 -14 37 -15t39 14.5t17 43.5v67q0 84 -36 120t-121 36h-616q-17 0 -26.5 -0.5t-28 -3.5t-30 -8.5t-26.5 -16.5t-24 -27t-15 -40.5t-6 -56.5v-336v-87q0 -160 1 -270q0 -25 6 -46q13 -40 46.5 -64
t76.5 -24h56h103q26 0 41 18q13 15 13 37q0 24 -15.5 40t-38.5 16zM454 476h-209q-27 0 -43 -17t-16 -39t15.5 -38.5t43.5 -16.5h210q27 0 43 17.5t16 39.5t-16 38t-44 16zM433 258h-188q-27 0 -43 -17t-16 -38.5t15.5 -38t43.5 -16.5h190q26 0 42.5 17t16.5 39.5t-16 37.5
q-17 16 -45 16z" />
    <glyph glyph-name="uniE693" unicode="&#xe693;" 
d="M669 229q-47 17 -103 28q26 23 44 53q24 38 35 84q10 46 14 84q4 39 4 86q0 76 -29 131q-29 57 -85 86q-55 29 -129 29h-8q-113 0 -177.5 -65.5t-64.5 -180.5q0 -47 3 -86q4 -39 15 -84q11 -46 35 -84q18 -30 44 -53q-56 -11 -103 -28q-59 -22 -98 -57q-42 -38 -42 -85
q0 -192 384 -192h2q77 0 139 7q64 8 107 22q42 14 73 31q31 18 49 42q16 22 23.5 44t7.5 46q0 47 -42 85q-40 35 -98 57zM331 168q18 1 31 15t13 32v58q0 26 -23 41q-16 9 -28 22q-12 15 -20.5 29.5t-15.5 34.5q-7 19 -11 37q-3 19 -6 41.5t-3 42.5q-1 21 -1 43q0 75 36 112
t109 37h8q145 0 145 -149q0 -42 -3 -76q-3 -33 -12 -69q-8 -35 -26 -62q-17 -27 -43 -42q-7 -4 -11 -9q-3 -4 -7 -9q-3 -6 -4.5 -12t-1.5 -12v-58q0 -18 12.5 -32t31.5 -15q91 -10 153 -39q25 -12 39 -22t16 -13.5t2 -6.5q0 -26 -31 -47q-34 -22 -103 -35q-70 -12 -169 -12
q-286 0 -286 94q0 5 11 15q14 12 41 25t68.5 24t88.5 17zM963 246q-41 38 -99 63q-52 22 -106 33v7q35 28 60 68q26 42 38 87q11 45 15 77q4 33 4 62q0 108 -63.5 170t-171.5 62q-10 0 -20 -3q-9 -4 -16 -12q-5 -6 -9 -14q-4 -9 -4 -19q0 -20 14.5 -34.5t34.5 -14.5
q8 0 17 -1q120 -8 120 -134q0 -24 -3 -50t-12 -63q-9 -35 -29.5 -65.5t-50.5 -49.5q-22 -15 -22 -41v-74q0 -18 13 -32q12 -13 31 -16q32 -4 65 -13t58 -21q25 -11 45 -24q20 -12 30 -23q7 -7 7 -11q0 -20 14.5 -34.5t34.5 -14.5t34 14.5t14 34.5q0 45 -43 86z" />
  </font>
</defs>
</svg>
